<?xml version="1.0" standalone="no"?>
<!DOCTYPE svg PUBLIC "-//W3C//DTD SVG 20010904//EN"
 "http://www.w3.org/TR/2001/REC-SVG-20010904/DTD/svg10.dtd">
<svg version="1.0" xmlns="http://www.w3.org/2000/svg"
 width="960.000000pt" height="959.000000pt" viewBox="0 0 960.000000 959.000000"
 preserveAspectRatio="xMidYMid meet">

<g transform="translate(0.000000,959.000000) scale(0.100000,-0.100000)"
fill="#000000" stroke="none">
<path d="M4470 9579 c-1882 -133 -3506 -1354 -4165 -3130 -497 -1341 -359
-2854 373 -4094 1014 -1715 2981 -2623 4947 -2284 1568 271 2917 1321 3558
2770 633 1430 540 3055 -251 4394 -867 1466 -2452 2365 -4152 2353 -107 0
-247 -5 -310 -9z m2455 -703 c8 -87 -8 -250 -35 -360 -24 -95 -95 -267 -151
-361 -101 -174 -302 -393 -464 -507 -181 -128 -413 -208 -606 -208 l-79 0 0
129 c0 154 17 254 70 403 72 205 223 434 388 589 88 83 240 188 351 244 99 49
288 111 392 129 137 23 126 27 134 -58z m-3319 -1061 c157 -30 261 -70 749
-292 116 -52 219 -99 230 -104 11 -5 55 -18 98 -29 170 -43 185 31 57 275 -38
72 -55 115 -47 115 63 0 317 -119 436 -204 24 -17 52 -36 63 -42 71 -41 214
-221 252 -318 33 -83 54 -178 66 -302 5 -54 14 -99 22 -107 7 -7 35 -30 62
-52 47 -38 96 -117 96 -155 0 -9 -18 -34 -41 -55 -22 -22 -47 -52 -54 -66 -14
-26 -14 -27 48 -57 34 -17 98 -47 141 -67 122 -55 230 -124 428 -272 50 -38
98 -72 106 -78 8 -5 52 -46 97 -90 81 -80 130 -147 160 -217 26 -64 25 -65
-77 -64 -58 0 -108 -5 -133 -14 -25 -9 -76 -14 -135 -14 -84 0 -107 5 -197 37
-56 20 -105 37 -108 37 -11 0 -5 -51 11 -90 20 -51 38 -60 111 -60 70 0 114
-25 158 -91 74 -111 82 -118 121 -109 20 5 46 18 58 29 35 33 53 27 61 -20 11
-65 -12 -162 -51 -213 -57 -74 -79 -64 -54 24 11 38 2 50 -40 50 -60 0 -159
-38 -375 -145 -277 -137 -384 -175 -511 -182 -129 -8 -173 1 -245 49 -50 33
-66 52 -86 95 -24 51 -24 54 -9 105 9 29 19 58 24 65 17 27 130 93 201 118
l36 13 -35 6 c-19 3 -114 15 -210 26 -212 25 -250 37 -274 86 -23 50 -66 104
-81 104 -10 0 -103 -37 -112 -44 -3 -3 21 -136 46 -256 l20 -95 82 -78 c45
-43 92 -83 105 -88 13 -4 24 -15 24 -23 0 -11 -10 -13 -42 -9 -70 8 -156 32
-213 59 -112 53 -252 215 -305 352 -12 31 -26 66 -30 77 -10 24 -36 101 -84
254 -49 153 -50 154 -70 95 -23 -71 -46 -198 -46 -257 1 -98 63 -317 91 -317
5 0 9 -6 9 -14 0 -19 76 -121 141 -186 65 -67 184 -172 299 -265 47 -37 90
-73 95 -80 6 -6 40 -39 77 -71 79 -70 195 -219 239 -306 41 -81 73 -184 94
-303 32 -175 6 -486 -42 -502 -11 -4 -30 45 -83 211 -36 114 -104 265 -149
332 -17 25 -31 47 -31 50 0 3 -27 43 -60 89 -58 80 -235 255 -259 255 -6 0
-11 4 -11 9 0 6 -11 16 -24 23 -113 62 -150 84 -209 122 -171 110 -285 210
-407 357 l-45 54 -5 -35 c-11 -71 16 -179 89 -350 17 -41 38 -88 46 -103 8
-16 15 -42 15 -59 l0 -30 -32 27 c-114 92 -281 284 -341 390 -64 116 -82 191
-82 335 1 151 23 243 97 400 55 117 90 176 158 265 63 82 183 261 208 311 57
111 74 249 51 409 -13 99 -7 119 27 82 44 -47 97 -76 178 -97 44 -11 83 -20
87 -20 4 0 -15 55 -42 122 -52 126 -52 137 -4 138 43 0 122 51 190 120 78 80
95 90 163 91 l47 0 -30 14 c-16 8 -79 37 -140 64 -60 27 -164 75 -230 106
-136 65 -224 97 -340 125 -254 62 -680 -30 -892 -192 -69 -53 -72 -65 -20 -79
141 -38 270 -172 367 -383 22 -49 40 -89 40 -91 0 -2 -26 -34 -57 -73 -32 -38
-71 -85 -86 -103 -41 -50 -102 -182 -131 -282 -23 -82 -52 -245 -44 -252 2 -2
26 24 53 58 28 34 66 79 86 99 20 21 34 40 31 43 -3 3 0 5 6 5 6 0 19 9 29 19
36 38 190 154 248 186 64 36 185 85 210 85 30 0 21 -14 -155 -265 -195 -276
-267 -427 -292 -614 -19 -149 10 -335 77 -493 35 -80 101 -217 117 -243 129
-200 149 -225 298 -375 169 -171 335 -266 416 -240 52 18 77 68 82 167 3 46 8
83 13 83 4 0 43 -29 85 -65 190 -162 337 -431 389 -710 26 -135 17 -349 -19
-469 -45 -150 -142 -324 -268 -482 -84 -105 -276 -282 -372 -342 -85 -54 -194
-104 -207 -97 -3 3 -2 24 3 47 5 24 12 93 15 154 6 124 -8 196 -56 299 -33 72
-138 237 -157 248 -8 4 -14 12 -14 18 0 19 -122 158 -249 284 -153 150 -217
232 -273 347 -50 105 -110 285 -138 413 -28 129 -59 371 -60 460 -1 39 -5 78
-8 88 -15 36 -110 -77 -172 -204 -104 -212 -147 -441 -138 -725 4 -109 2 -144
-7 -144 -19 0 -98 64 -129 104 -43 56 -103 193 -130 296 -52 192 -61 289 -60
622 1 174 7 350 14 408 7 55 10 103 7 106 -22 22 -219 -150 -283 -246 -80
-119 -153 -302 -192 -479 -10 -47 -23 -86 -29 -88 -20 -7 -72 77 -96 151 -19
61 -22 94 -22 226 0 216 29 335 155 630 34 80 74 174 90 210 15 36 36 85 48
110 130 287 395 921 387 928 -5 5 -248 -117 -270 -137 -11 -10 -36 -27 -56
-39 -53 -32 -177 -146 -251 -232 -66 -76 -158 -204 -158 -220 0 -4 -4 -10 -9
-12 -10 -4 -54 -77 -81 -137 -62 -134 -115 -231 -126 -231 -19 0 -28 114 -21
270 15 350 152 841 305 1094 23 37 42 70 42 73 0 2 31 46 69 97 116 157 234
276 420 424 203 162 367 263 550 341 81 34 251 78 351 90 97 13 284 6 386 -14z
m3489 -394 c309 -54 551 -165 780 -359 70 -60 215 -223 215 -243 0 -4 -31 -28
-69 -53 -357 -242 -561 -549 -617 -927 -20 -137 -15 -390 10 -513 34 -168 109
-347 205 -490 114 -172 373 -400 556 -489 44 -22 82 -41 84 -43 6 -5 -86 -248
-133 -349 -117 -256 -259 -491 -439 -730 -210 -278 -378 -437 -554 -524 -234
-117 -467 -107 -839 34 -356 135 -610 157 -914 80 -52 -13 -96 -22 -98 -20 -2
2 31 39 73 82 193 195 338 420 409 633 13 41 39 140 56 220 53 241 72 270 263
395 72 49 152 101 177 118 109 73 179 162 205 264 12 44 12 65 0 135 -18 111
-32 173 -50 215 -28 67 -19 105 48 206 74 112 80 135 73 273 l-7 122 30 7 c41
9 107 58 131 98 62 101 -30 288 -247 504 -136 135 -220 201 -423 332 -207 133
-199 125 -210 194 -5 31 -26 106 -46 165 -34 100 -36 113 -31 192 7 113 34
228 55 239 9 4 145 51 302 104 278 94 400 127 538 146 101 15 331 5 467 -18z
m-3185 -245 c119 -27 330 -93 345 -108 7 -6 -10 -28 -47 -63 l-58 -54 -42 15
c-88 31 -246 66 -318 71 -67 5 -78 3 -103 -17 -25 -20 -28 -27 -22 -58 9 -47
38 -105 84 -167 21 -27 55 -74 75 -104 44 -62 53 -44 -79 -160 -43 -39 -83
-71 -88 -71 -12 0 -151 292 -181 382 -46 137 -30 257 41 303 88 58 227 69 393
31z m2360 -2288 c26 -107 46 -218 52 -291 l11 -117 -29 -43 c-43 -64 -65 -87
-106 -108 -44 -22 -43 -25 -22 86 26 131 12 134 -51 9 -103 -205 -196 -285
-389 -335 -39 -10 -74 -19 -78 -19 -15 0 -8 40 22 120 42 113 40 150 -7 189
-21 17 -43 31 -50 31 -29 0 -42 26 -79 160 -6 25 68 130 136 193 102 95 215
165 424 262 32 16 60 24 117 34 4 0 26 -77 49 -171z m-945 -525 c135 -157 257
-365 304 -517 25 -82 27 -192 6 -286 -23 -99 -113 -271 -204 -392 -80 -105
-177 -201 -288 -284 -58 -44 -160 -100 -168 -93 -2 3 39 67 91 144 308 452
364 790 219 1340 -18 72 -37 138 -40 148 -15 37 16 14 80 -60z m-2738 -2729
c50 -38 68 -81 68 -164 0 -87 -19 -130 -67 -160 l-32 -19 25 -9 c61 -24 89
-82 89 -188 0 -87 -15 -130 -59 -167 -46 -38 -90 -47 -238 -47 l-133 0 0 391
0 391 159 -4 c144 -3 162 -5 188 -24z m513 -59 l0 -85 -100 0 -100 0 0 -65 0
-65 89 0 89 0 4 -80 3 -79 -90 -3 -90 -3 0 -70 0 -70 103 -3 102 -3 0 -85 0
-84 -175 2 -175 3 -3 388 -2 387 173 0 172 0 0 -85z m240 -210 l0 -295 85 0
85 0 0 -95 0 -95 -160 0 -160 0 0 390 0 390 75 0 75 0 0 -295z m573 245 c13
-68 147 -703 152 -717 3 -10 -16 -13 -74 -13 l-78 0 -14 83 -15 82 -81 3 -81
3 -11 -51 c-6 -28 -11 -59 -11 -70 0 -44 -9 -50 -81 -50 -46 0 -69 4 -69 12 0
6 36 180 80 385 44 206 80 377 80 379 0 3 44 3 97 2 l97 -3 9 -45z m451 38 c2
-7 18 -119 35 -248 31 -224 35 -249 45 -239 3 2 22 116 42 252 l38 247 113 0
113 0 0 -390 0 -391 -67 3 -68 3 -2 279 c-1 153 -4 280 -6 282 -2 2 -22 -114
-46 -259 -23 -144 -45 -272 -48 -284 -5 -21 -11 -23 -79 -23 -68 0 -74 2 -79
23 -3 12 -23 131 -45 264 -22 132 -44 252 -49 265 -7 15 -10 -75 -10 -265 l-1
-288 -60 3 -60 3 -3 388 -2 387 118 0 c86 0 119 -3 121 -12z m636 -138 c0 -82
4 -150 9 -150 5 0 35 68 67 150 l59 150 87 0 87 0 -56 -117 c-30 -65 -68 -146
-84 -181 l-29 -62 86 -198 c48 -108 89 -203 91 -209 4 -10 -17 -13 -85 -13
l-90 0 -50 133 c-27 72 -56 149 -63 170 -7 20 -17 37 -21 37 -4 0 -8 -76 -8
-170 l0 -170 -75 0 -75 0 0 390 0 390 75 0 75 0 0 -150z m783 -217 c43 -203
81 -378 84 -390 5 -22 3 -23 -70 -23 -85 0 -78 -8 -97 103 l-12 68 -81 -3 -81
-3 -16 -80 -16 -80 -72 -3 c-71 -3 -73 -2 -67 20 14 58 134 630 145 691 l12
67 97 0 96 0 78 -367z m517 272 l0 -95 -100 -200 c-55 -110 -100 -204 -100
-210 0 -6 41 -10 105 -10 l105 0 0 -85 0 -85 -200 0 -200 0 0 94 0 95 102 203
c57 112 104 206 106 211 2 4 -42 7 -97 7 l-101 0 0 85 0 85 190 0 190 0 0 -95z
m448 -115 c24 -113 60 -287 81 -387 l38 -183 -77 0 -77 0 -14 83 -15 82 -81 3
-81 3 -11 -68 c-19 -109 -13 -103 -92 -103 -38 0 -69 1 -69 3 0 8 72 355 114
556 25 118 46 216 46 218 0 2 44 2 97 1 l97 -3 44 -205z m495 196 c66 -28 102
-91 113 -197 8 -85 -9 -173 -47 -233 l-30 -49 51 -139 c27 -76 50 -141 50
-143 0 -3 -38 -5 -84 -5 l-84 0 -42 125 c-41 122 -42 125 -71 125 l-29 0 0
-125 0 -126 -70 3 -70 3 -3 388 -2 387 143 0 c98 0 153 -4 175 -14z"/>
<path d="M5018 7143 c25 -49 53 -101 62 -117 13 -25 30 -33 125 -61 61 -18
112 -31 114 -29 12 10 -124 158 -194 211 -35 27 -136 83 -149 83 -2 0 16 -39
42 -87z"/>
<path d="M4987 6525 c-21 -8 -51 -23 -66 -35 -16 -11 -33 -20 -37 -20 -11 0
-184 -132 -184 -141 0 -4 48 6 108 22 147 40 153 39 199 -20 82 -106 158 -126
264 -70 l58 31 98 -64 c54 -36 117 -75 140 -86 47 -24 123 -52 123 -45 0 33
-184 218 -246 248 -32 15 -33 15 -27 73 l6 57 -41 -37 c-51 -46 -87 -49 -151
-11 -25 14 -48 29 -51 32 -3 4 -24 21 -47 39 -50 39 -94 47 -146 27z"/>
<path d="M2390 1435 l0 -75 44 0 c50 0 64 13 73 64 9 56 -16 86 -72 86 l-45 0
0 -75z"/>
<path d="M2395 1211 c-3 -2 -5 -44 -5 -93 l0 -88 43 0 c60 0 79 17 84 76 6 72
-11 98 -70 104 -26 4 -50 4 -52 1z"/>
<path d="M3797 1470 c-3 -8 -13 -60 -22 -115 -9 -55 -19 -110 -22 -122 -5 -22
-2 -23 47 -23 l52 0 -7 48 c-15 105 -42 226 -48 212z"/>
<path d="M5582 1362 c-12 -70 -22 -133 -22 -139 0 -9 17 -13 50 -13 47 0 50 1
45 23 -3 12 -14 73 -25 136 -11 63 -21 116 -23 118 -2 1 -13 -55 -25 -125z"/>
<path d="M6601 1480 c-12 -46 -46 -261 -43 -265 3 -3 25 -5 50 -5 l44 0 -7 48
c-8 58 -42 229 -44 222z"/>
<path d="M7080 1390 l0 -100 35 0 c56 0 85 36 85 102 0 74 -18 98 -76 98 l-44
0 0 -100z"/>
</g>
</svg>
